<svg xmlns="http://www.w3.org/2000/svg" viewBox="0 0 150 150">
<!-- SVG created with Arrow, by QuiverAI (https://quiver.ai) -->
  <style type="text/css">.cls-0 {fill:#261C11;}
.cls-1 {fill:#FFF9EE;}
.cls-2 {fill:#F4ABAB;}
.cls-3 {fill:#454545;}
.cls-4 {fill:#FFFFFF;}
.cls-5 {fill:#6B3D18;}
.cls-6 {fill:#F6D3D3;}
.cls-7 {fill:#F39292;}
.cls-8 {fill:none;}
.cls-9 {fill:#6A3A17;}</style>
  <path class="cls-0" d="m145.7 72.8c-1.7-1-4.1-2-6.3-2.3-5.6-0.7-8.9-3.3-12.9-6.8-2.7-2.4-5.2-5.4-8.8-7.8-1.5-0.9-3.2-2-4.5-2.3 0.5-2.5 1.8-7.9 5.5-13.6 2.6-3.9 5.9-6.3 8.8-7.5 1.7-0.6 2.6-2.9 1.4-4.7-2.1-3.1-7.9-5.1-14.7-5.1-3.7 0-6.4 0.3-10.5 1.8-4.9 1.7-12.5 5.9-18 14.2-1.9-1.3-3.7-2.7-6.9-3.1-3.4-0.4-6.2-0.7-8.5 1.3-0.7 0.7-1.3 2.1-1.3 2.1l-1.6-0.2c0.5-2.3 3.6-6.2 7.2-8.4 3.3-1.9 3.8-3.4 3.1-4.9-0.9-2.1-1.8-3.9-9.9-4.8-3.3 0-5.3 0-9.1 1.1-8.6 2.3-17.9 8.8-21.1 20.2-1 3.7-1.3 7.4-0.9 11.4-3.5 0.9-5.3 2-6.4 2.8-2.7 1.9-5.2 4-6.9 5.7-3.1 2.9-6.9 5.6-10 7.2-4 1.9-10.2 2-11.5 6.5-1.2 3.4 0.2 9.4 4.2 13.7 2.5 2.6 7.7 6.6 13.8 6.9 2.4 0.1 4.7 0.1 8-0.4h0.4c0.1 0.1 0.1 0.2-0.1 0.5-1.3 1.6-3.6 3.2-3.5 5.4 0.1 1.6 1.2 3.3 2.7 3.8 0.4 0.7-0.7 4.7 2 8 1.6 1.8 4.4 3.5 6.5 3.9 1.7 1.7 3.7 2.9 7.5 5 7.8 4.4 17.2 6.6 26.3 6.6 7.9 0.1 12.7-0.2 20.2-1.8 5.7-1.5 9.7-2.1 13-3.2 3.3-1 5.9-2.5 8.7-5.3l1.5-1.9c0.2-0.2 0.3-0.3 0.5 0 2.8 0.3 8.4-1 8.4-7.8 0.1-3.1-0.7-4.3-0.8-5.1 0.6-0.9 3.3-1.4 3.6-4.2 0.1-1.2-0.4-2.1-0.9-3.2 0.2 0 3.8 0.1 5.3 0 4.3-0.2 9.7-2.2 12.5-4.3 2.8-2.2 5.6-5.1 6.6-9.7 0.6-2.6 0.6-7.4-2.6-9.7z"/>
  <path class="cls-1" d="m142.5 75.2c-2-0.7-7-1.8-10.3-3.4-4.7-1.9-8-5-11.3-8.5-3.4-3.6-7-5.6-9-5.8-1.3-0.1-2.3 4-0.8 6.7 0.5 0.9-2 2.4-2 2v-0.7c0-0.2 1.2-0.9 0.6-1.5-0.6-0.9-2.7-2.4-3.5-2.8-5-2.2-7.7-3.6-15.2-3.4 2.1-1 5-2 7.2-2-2.2-1.4-9.7-2.5-16.8 1.2-0.1-3.4 0-5.9 0.7-10.2l1.9-5c-3.5-2.8-5.7-3.8-11.2-3.4-1.4 0.2-1 1.5-0.4 1.9 1.7 1.3 2.5 3.3 2.5 3.3-1.5-0.9-3.2-1-5.7-1.6-3.2-0.7-5.5-1-10.1-0.2-1.3 0.2-3.7 0.8-4.3 1.8 0.9 0 1.1 0.7 1.6 0.8 2.8 0.7 3.2 0.3 4.4 1.3l-5.2 1.3c-3.1 0.7-5.9 2.4-7.9 4.7-3.3 3.6-3.3 6.9-2.1 9.9 1.6 2.6 2.1-0.9 2.7-2.8 0.9-2.1 2.7-4.5 2.7-4.5-0.6 2.8-1.3 6.9 1 11.1 0.8 1.5 2.9 3.5 4.9 4.9 1.1 0.7 3.3 1.5 3.3 1.5 3-4.7 5.2-6.8 10.3-9.3l3.6-1.9 0.1-0.1v-0.1h0.1c0 1.4-1 2.1-1.7 2.5-4.9 2.9-10.5 6.7-11.3 11.4l-1-0.5c-3.1-0.5-4.9-1.1-8.1-4.3-1.9-2-2.6-3.5-3.6-5.4-2.9 0.9-4.4-1-5.3-4.6-0.2-1-0.7-1.9-1.1-1.8-1.5 0.6-5.3 1.4-5.3 5.3 0.1 1.4 1.6 0.4 2.6 1.2-2.6 1.5-4.9 6.3-6 12.3-0.6 3.7-0.6 7.7-0.7 10.9 0.2 6.6 0.6 7-1.7 10-1.9 2.4-2.9 3.7-2.6 4.3 0.5 0.8 3 0 3 0-2.4 7.3 1.6 11.7 2.4 11.6 0.2-2.6 1.8-5.4 1.8-5.3 0.5 4.1 2 6.1 5 8.6 8.1 4.9 15 8.3 29.2 8.4 7.6 0.1 14.9-0.3 21.8-2.6 4.4-1.4 6-2 9.2-4.7 1.4-1.1 1.5-2.1 1.6-2.8 1.4 2.6-0.1 3.7-0.5 4.6l0.1 0.1c0.1 0 5.7-0.5 8.1-5.4 1.4-2.8 0-4.7 0.3-4.6 0.6 0.9 1.6 1.8 1.4 2.8 2.7 1.4 6.2 0.2 6.3-4.5 0-3-1.6-5.2-2.7-7.9 2.6 1.4 4.6 0.5 5.1-1 0-0.9-0.8-1.1-1.2-1.5-4.2-4.2-9.3-16.9-11.4-26.1 1.1 3.2 2.8 6.6 4.1 8.6 1.3 1.1 3.4 2.2 6.9 2.4 7.7 0.3 11.9-0.8 19.3-3.4-3.9 2.1-13.3 6.7-21.2 5.3l-2.5-0.6 1.8 4.9c0.7 1.5 2.1 2.8 3.7 3.2 3 0.8 5.1 0.8 9.1 0.7 6.4-0.3 14.3-5.9 15.4-11.6 0.8-3.9-1.5-5.4-2.1-5.7z"/>
  <path class="cls-3" d="m43.3 53.5-2.6 0.8c-1.2-10.5 3.2-19.3 10.3-24.1 7.3-5.6 15.7-6.3 23.1-4.2-4.7 2.5-9 6.8-10.7 12.7-3.5 0-5.9 0.7-7.9 1.6-2.1 1-3.9 2.3-2.5 4.7-2.7 0.7-5.9 2.2-9.7 8.5z"/>
  <path class="cls-3" d="m85.4 52.5c4.1-1.4 8-1.1 11.2-0.2 2.3 0.6 5 1.6 5.1 4.1l5.7 2.5h0.1 0.1l0.1 0.1c0.5-1.2 0.9-2.1 1.3-2.8l0.1-0.1v-0.2l-0.2 0.1 0.1-0.2 0.1-0.1c0.5-5.8 2.2-11.4 6.4-17.8 2.3-3.6 5.1-6.9 10.1-8.8-3.9-2.5-9.2-3.6-15.6-2.6-4.4 0.6-10.8 3.1-14.3 6-4.5 3.5-10 10.4-10.3 20z"/>
  <path class="cls-1" d="m37.4 57.6c-2.8 0.4-7.3 2.9-11.9 7.8-2.1 2.2-5.9 4.8-8.9 6.4-3.2 1.6-8.5 2.9-10 3.7-0.9 0.2-1.5 1.6-1.2 2.2-0.4 3.9 2.5 9.9 8.7 12.5 3.4 1.6 5.1 2.2 9 2.1 3.5 0 6.4-0.9 6.4-1.4l0.2-7.9c-4.8 2-9.1 1.4-13.8-0.4-4.2-1.5-6.5-4.2-7.6-4 6.6 3 13.2 4 16.3 3.3 1.5-0.2 5.3-1.3 5.7-2.9 0.7-3.5 1.2-6.5 2.3-8.6l3-4.8c-1.5-2.9-0.5-5.7 1.8-8z"/>
  <path class="cls-2" d="m8.4 78.6c1.2-0.5 3.1 1.7 5.6 2.8 5.6 2.5 11.2 3.7 16 1.6l-0.4 7c0.5-0.5-0.2-1.9-0.2-1.9-3 1.6-18.2 3.8-21.5-6.2-0.2-1-0.3-2.8 0.5-3.3z"/>
  <path class="cls-2" d="m139.6 78.5c-0.9 0-2.1 0.9-5.2 2.1-3.9 1.8-9.2 4-16.2 3.8l-3.6-0.7 0.9 2c3.9 3 8.6 4.2 13.9 3.9 8.8-0.5 12.7-7.6 11.7-10.5-0.2-0.2-0.6-0.7-1.5-0.6z"/>
  <path class="cls-0" d="m60.2 71.9c2.4-4 5-6.5 8.9-8.5 1.5-0.9 3.4-1.9 5.1-2.8-0.5 2-2.3 2.4-2.3 2.4-3.4 2-9.3 5.9-10.5 10.5l-1.2-1.6z"/>
  <path class="cls-5" d="m41.1 76.6c0-1.1 2.8-4.4 6-4.4 2.8 0 5.4 1.5 5.8 5.4-1.2-1.6-3.4-2.6-5.5-2.9-2.9 0-4.8 1-6.3 1.9z"/>
  <path class="cls-5" d="m81.9 76.6c0.5-1.9 3.2-4.2 6.3-4.2 3.4 0 6.3 1.7 6.6 4.7-1.9-1-3.4-2-6.8-2-1.8 0.1-4.6 0.5-6.1 1.5z"/>
  <path class="cls-5" d="m45.5 79.9c-3.1 0.3-8.9 2.7-9 9.7-0.1 4 2.1 7.8 4.7 9-1.5-2.3-4.8-11.6 3.7-15.4-1.2 1.4-2.9 4.4-2.7 9 0.2 2.8 1.5 6.9 4.7 8.4 3.5 1.1 7.5 0.3 8.7-4 2.1-6.7-1-16-10.1-16.7z"/>
  <path class="cls-4" d="m48.3 87.5c0-1.4 1.3-2.8 2.8-2.5 1.4 0.1 2.4 1.9 2 3.6-1 2-4.5 2-4.8-1.1z"/>
  <path class="cls-5" d="m91.1 80.1c-7-0.2-12.6 3.8-12.5 12.3 0.1 4.2 2.8 10.2 8.9 10.3 5.7 0 8.7-4.8 8.7-10.2-0.1-3.6-1.2-6.6-2.2-8.1 2.6 1.1 5 4.2 5.2 8.6 0 2.6-1.7 6.9-1.7 6.9 1.6-0.4 5.1-3.5 5.1-7.7 0-4.3-2.7-11.1-11.5-12.1z"/>
  <path class="cls-4" d="m82.7 87.7c0-1.6 1.3-3.3 3.3-3.1 1.5 0.1 3.1 1.5 2.7 3.5-1.1 2.8-6 3.3-6-0.4z"/>
  <path class="cls-6" d="m43.1 101.9c3.3 0 5.8 1.7 5.8 3.8 0 2-2.5 4-5.8 4-2.7 0-5.6-1.3-5.6-3.8 0.1-2.2 2.9-4 5.6-4z"/>
  <path class="cls-6" d="m94.2 103.4c3.2 0 5.5 1.6 5.5 3.8-0.1 2.2-2.6 4.2-6.1 4.2-2.2 0-5.1-1-5.1-4 0.1-2 2.9-4 5.7-4z"/>
  <path class="cls-5" d="m57.1 106.5c-0.6 0.4 0.4 1.2 1.3 2.1 1 1 1.7 7.8 7.2 9.9 3.6 1.1 8-0.8 9.3-6.4l1.3-6.2c-0.3-1-2.6 2-6.3 1.6-2.9-0.3-3.9-1.9-5-1.8-1.5 0.4-4.3 3.4-7.5 0.9l-0.3-0.1z"/>
  <path class="cls-7" d="m62.2 113.7c1.3 2.9 3.8 4.8 6.8 3.9 3.2-1.1 4.4-4.5 4.6-6.5-2.2-0.4-4.2-0.6-6.1-0.4-1.9 0.4-6.1 1.2-5.3 3z"/>
  <path class="cls-5" d="m59.1 98.9c-0.4 1.5 1.1 2.5 4.5 4.7 1 0.4 1.6 0.8 3 0 1-0.6 3.8-2.5 3.9-3.1 0.4-0.6 0.4-1.6-1-2.4l-10.4 0.8z"/>
  <path class="cls-7" d="m59.2 98.9c0.9 1.2 4.7 4.2 6.3 4.1 0.9 0 4-2.4 4.1-2.9 0.5-0.6 0.5-1.7-0.6-2.2-2.8-1.3-9.1-0.5-9.8 1z"/>
  <path class="cls-8" d="m74.1 60.6"/>
</svg>