<svg xmlns="http://www.w3.org/2000/svg" viewBox="0 0 150 150">
<!-- SVG created with Arrow, by QuiverAI (https://quiver.ai) -->
  <style type="text/css">.cls-0 {fill:#3C2411;}
.cls-1 {fill:#FDEBD4;}
.cls-2 {fill:#F4A097;}
.cls-3 {fill:#9C663E;}
.cls-4 {fill:#FFFFFF;}
.cls-5 {fill:#C78654;}
.cls-6 {fill:#F6C4B8;}
.cls-7 {fill:#EE7D7C;}
.cls-8 {fill:none;stroke:#3C2411;stroke-width:0.8881;stroke-miterlimit:10;}</style>
  <path class="cls-0" d="m146.8 73.8c-1.5-1.6-4.9-3.1-7.8-3.3-6.6-1.1-10.9-5.1-14.2-8.2-2.3-2.3-4.2-4.4-8.5-7.3-1.1-0.6-2.4-1.3-3-1.4 0.6-3 1.5-7.1 5.1-13 2.5-4.2 6.8-7 8.6-7.9 1.1-0.4 2.4-1.1 2.6-2.8 0.2-1.8-1.4-3.1-2.4-3.9-2-1.5-5.8-3.1-12.6-3.3-5.7-0.1-9.6 1-14.1 2.9-2.9 1.5-5.4 2.8-7.6 4.8-2.8 2.2-5.2 4.8-7.2 8.2-2.7-1.7-4.7-3.2-10.7-3.4-1.6 0-3.5 0.6-4.7 1.4-0.7-0.6-1-0.7-1.7-0.7 1.2-2.1 3.5-4.3 6.4-6 1.1-0.6 2.8-1.9 2.9-3.2 0-0.7-0.5-1.6-1.1-2.8-0.9-1.2-3.4-2.7-8.5-3.1-3.9-0.3-6.9 0-11.9 1.6-5.2 1.7-10 5.1-13 8.7-4.4 5-6 10.3-6.6 14.5-0.4 2.3-0.5 4.8-0.2 7.6-1.3 0.5-3.7 1.1-6.1 2.6-3.9 2.6-6.4 5.4-8.6 7.3-3 2.4-6.9 5.3-10 6.6-1.5 0.6-2.8 0.8-4 1.2-3.2 1-6.2 1.8-6.2 6.8 0 2.8 1.1 5.7 2.1 7.7 1.1 1.9 2.8 4.3 4.8 5.7 3.9 2.8 7.1 4.9 13 5.1 2.8 0 5.5-0.3 6.7-0.4h0.1c-0.1 1.2-3.9 3.1-3.8 5.8 0 1.3 0.8 3 2.3 3.8 0.7 0.5 0.6 0.6 0.5 2.2 0 1.5 0.5 4.5 2.6 6.3 2.4 2.1 3.9 2.9 6 3.5 2.1 2 4 3 6.5 4.5 5.4 3.1 10.6 4.7 14.6 5.5 4.3 0.8 9 1.7 16.3 1.7 2.7 0 7.5-0.2 9.7-0.5 2-0.4 7.3-1.2 10.3-2 3-0.9 5.6-1.1 8.5-2 4.1-1 7.5-2.7 11-7l0.2-0.2c0.4-0.6 0.4-0.5 0.5-0.5 1 0.1 4 0.2 6.3-1.9 2.6-2.4 2.6-6.4 1.9-9.6l-0.3-1.5 0.4-0.5c0.9-0.5 2.5-1.3 2.7-3.3 0.2-1.5-0.7-3.5-0.7-3.5h5.2c2.9 0 7.3-1.2 10.5-2.8 3.5-1.9 6.8-5.6 7.9-8.4 1-2.4 1.4-4.9 1-7.7-0.4-1.7-1.1-3.3-1.7-3.9z"/>
  <path class="cls-1" d="m142.5 75.2c-2.6-0.9-5.4-1.3-9.7-3.3-4.9-1.5-9.4-6-12.4-9.2-4-4.1-8.3-5.3-8.9-5.2-0.9 0.1-1.9 3.5-0.5 6.6 0.5 1.3-2 2.3-2 2.3l0.1-1.2c1.8-0.8-0.7-2.2-2.5-3.6-6.8-3.2-10.2-4.1-16-3.7 2.3-1 5-2 7.4-2.1-2-1.4-9.4-2.9-16.6 1.1 0-3.5 0-8.8 2.6-15.1-3.9-2.9-6.1-3.9-11.1-3.6-1.9 0-1.4 1.5-0.5 2 1.5 1.2 1.7 1.9 2.6 3.3-2.9-1-7.4-2.2-11.2-2.3-2.4 0-7.7 0.4-9.1 2 1.2 0.2 1.2 1.1 1.7 1.1 1.7 0.1 3.2 0.3 4.5 1.2-5.4 1.4-8 1.4-11.1 3.9-6 4.7-5.6 9.6-3.8 13 1.4 1.5 1.9-2.3 2-3 0.5-1.5 1.8-3.9 2.7-5-0.3 1.7-1.6 6.2 0.8 10.6 1.5 2.6 3.1 3.5 4.1 4.5 1.5 1.2 3.5 2 4.5 2.5 2.8-5 6-7.4 10-9.5 1.3-0.8 3-1.6 3.9-2.1-0.4 2-2 2.3-3 3.2-2.9 1.9-8.9 5.8-9.8 10.5-1.8-0.7-4.1-0.7-6.6-2.5-1-0.7-3.1-2.7-4.2-4.2-0.8-1.2-1.8-3.5-1.9-3.5-3.1 1.1-4.5-1.4-5.5-5.3-0.4-1.2-0.9-1.1-1.4-0.9-2.6 0.7-5.1 2.7-4.7 5.9 1 0.3 2.1 0 2.6 0.5-3.4 2-6.6 9.3-6.9 18-0.1 8.3 0.3 10.5-0.1 12.5-0.5 2.3-4 5.3-4.4 6.9 0.8 1.1 3.3 0.2 3.3 0.2-0.9 2.9-1.4 6.3 1.2 10.4l1.2 1.3c0.2-2.4 1.1-3.7 1.8-5.7 0 3.8 1.5 5.9 5 8.9 8.8 5.5 16.3 8 28.5 8.3 10 0.3 16.8-0.3 26.4-4 2.4-0.9 3.6-2 5.4-3.5 0.5-0.5 1.5-1.5 1.6-2.4 0.9 1.6 0.5 2.9-0.9 4.7 4.3-0.7 7-2.7 8.4-5.3 1.1-2 0.9-3.3 0.9-4.9 0.7 1.4 1.5 1.9 1 3 2.6 1.1 4.5 0.6 5.7-1.1 1.4-2 0.9-5 0.3-7l-2.4-5c3.4 2 5.9 0 5.1-1.3-2.5-1.1-5.1-6.5-6.2-8.7-2-5-5.4-13.5-6.3-17.7 1 2.9 2.8 6 4 8.3 2 1.5 4.5 2.4 9.4 2.4 7.1 0.2 11-1.4 17.1-3.4-4.5 2-9.5 4.9-15.5 5.4-3.1 0.2-5.5 0.2-8.5-0.5l2.3 5.5c1 1 2.1 2 3 2.2 2.7 0.9 5.7 0.9 9 0.9 7.2-0.1 16.2-6.6 15.7-13.9-0.5-2.2-1.2-3-2.1-3.4z"/>
  <path class="cls-3" d="m43.8 52.5c3.1-3.9 5.3-5.9 9.6-7.4-1.9-3.2 2.2-4.9 4.6-5.5-3.9-0.7-8.4-2-13.4 0.5 2.3-3.7 9.9-4 17-1.4h1.9l0.6-1.6c-3.7-3.2-7.2-4.5-13-5.4 2.3-0.8 9-0.5 13.5 3.8 2-4.1 5-7.4 9.5-9.4-3-1.1-10.7-2.5-17.7 0.6-9.8 4.2-16.4 13.9-16 27l3.4-1.2z"/>
  <path class="cls-3" d="m85.1 52.5c3-0.9 4.9-1 8.5-0.6 3 0.2 7.9 1.6 8 4.6 2 0.5 4.5 1.4 5.9 2.6l1.1 0.6 0.3-1.1-0.3 0.5 0.3-0.5-0.2-0.2h-0.1l0.9-2c0.1-3.3 0.6-5.3 0.1-4 1-2.8 0.9-2 0.8-3-3.3-3.5-6.4-6-12.4-7.8-2.6-1-4.9-1.1-7.6-0.4 1-2.2 6.1-2.2 11.1-0.6 5 1.4 6.6 3.8 7.9 5.4l1 1.1 0.6 0.4c0.5-2.6 2.1-5.5 2.5-6.4-1.1-2.1-2.1-3.5-4.5-4.6-2.1-1.1-4.1-2.4-7.5-3.1l-2.9-0.9c3.3-0.5 6 0.2 9.3 1.5 2.5 1.1 5 2.6 6.5 5.4 2.1-4.5 5.5-8.3 11.5-10.4-1.9-2-4.4-2.4-8.5-2.9-2.9-0.2-6.5-0.1-9.5 0.8-10.8 2.8-21.9 10.7-22.8 25.6z"/>
  <path class="cls-1" d="m37.4 57.5c-3.8 0.5-8.4 3.9-12.4 7.9-8 7-12.6 8-18.5 10.2-3.4 1.5-1 8 1.6 10.8 3 3.5 8 6.1 13 6 2.9 0 6-0.3 8.3-1.5l0.2-7.5c-2.7 0.2-5 1.2-9 0.5-7.2-1.3-9.2-3.5-10.7-4.9 3.7 1.4 8 3 13.2 3.1 1.9 0 6.3-1.2 6.9-2.5 1.4-7.7 2.9-9.7 5.5-14-1.5-2.6-1-5.7 1.9-8.1z"/>
  <path class="cls-2" d="m8.9 78.5c-0.8-0.3-1.2 1.4-0.8 3 1.4 5.9 8.5 8.2 13.4 8.2 3.9 0 6.4-0.7 8.1-1.5v-4.8c-1.7 0.1-4.5 1-7.7 0.5-3.3-0.3-7.8-1.8-9.8-3.3l-3.2-2.1z"/>
  <path class="cls-2" d="m115.1 85.4c3 2.2 6.5 4.3 13.5 4.3 8.3 0 12.9-6.7 12.6-9.7-0.2-1.3-1.3-1.8-2.6-1-2.5 1.1-8.5 4.6-14.6 5.4-3 0.2-5.6 0.2-9.4-0.5l0.5 1.5z"/>
  <path class="cls-0" d="m81.8 76.6c0.8-2.7 3.8-4.6 6.6-4.2 3 0.1 5.7 1.7 6.2 4.6-1.7-0.9-3.5-1.9-6.1-1.9-2.4 0-4.9 0.8-6.7 1.5z"/>
  <path class="cls-0" d="m40.9 76.7c0.2-2 3.5-4.7 6-4.6 2.2 0 5.5 1.5 5.7 5.3-1-1.3-3.5-2.8-5.7-2.8-1.8 0.1-4.3 0.9-6 2.1z"/>
  <path class="cls-0" d="m45.6 80c-5.7 0.1-9.5 4.9-9.2 10.5 0.1 3.9 2.7 7.9 4.7 8.1-1.7-2.2-4-11.5 3.5-15.2-3.1 4.2-4 15.2 2 17.3 2.9 0.9 6.3 0.4 8-2.2 3-5.1 1.8-17.9-7.7-18.5h-1.3z"/>
  <path class="cls-4" d="m50.6 85c-2 0.4-3.2 3.6-1 4.6 1.4 0.8 3.4-0.2 3.5-1.6 0-1.5-0.7-3.1-2.5-3z"/>
  <path class="cls-1" d="m44.6 83.4c-2.7 1.2-5.6 3.2-5.6 8.1 0 2.5 1.1 6 2.1 6.9l3 0.1c-2.5-4.1-2.6-10.9 0.5-15.1z"/>
  <path class="cls-5" d="m43.5 92.5c0.1 3.5 1.6 7.9 5.6 7.7 4 0 5-3.8 5.1-7-0.7 0-1.8 0.7-2.1 0.7-0.6 2.2-1.5 3.6-3.1 3.5-2.1 0-2.5-1.3-3-4.4-0.6-0.4-1.6-0.5-2.5-0.5z"/>
  <path class="cls-0" d="m90.5 80c-8.1-0.1-12.4 6-12 13 0.4 4.6 3.1 9.6 8.5 9.6 5.6 0.3 8.9-4.7 9.1-9 0.3-3.7-1-8.1-2.2-9.2 4 1.5 7.2 8.6 3.5 15.5 2.1-0.5 5.1-3.9 5.1-7.8 0.1-4.6-2.6-9.5-7.1-11-2-0.7-2.9-1.1-4.9-1.1z"/>
  <path class="cls-4" d="m85.1 84.6c-2 0.4-2.7 2.8-2.5 4 0.4 1.4 2.4 2.4 3.9 1.6 4.4-2 1.9-5.8-1.4-5.6z"/>
  <path class="cls-5" d="m80.1 92.9c0 3.6 2.3 8.7 7.5 8.8 4.8 0 6.9-5.7 6.8-9.3l-2.5 1.2c-0.8 3.9-2 5-4.9 4.8-2 0-3-1.4-3-3.5l-2.5-1-1.4-1z"/>
  <path class="cls-0" d="m76.1 105.4c-2.6 1.5-4.2 2.5-7.2 2-2.3-0.5-3.3-1.8-4.4-1.4-1.9 0.9-4.5 3-7.5 0.6-0.6 0-0.4 1 1.1 2 1 1.1 1.3 4.5 3.9 7.4 4.4 5 9.5 3 11.6-0.6 1.4-2 1.5-4.9 2.5-10z"/>
  <path class="cls-2" d="m62 113.6c0.9 2.4 4.5 6.5 8.5 3.3 2-1.3 3.1-4.4 3-5.8-3.4-0.6-5.9-0.4-9.4 0.8-0.7 0.2-2.5 1.1-2.1 1.7z"/>
  <path class="cls-6" d="m47.1 103.6c3.4 2.3 1.9 6.3-3.5 6.3-5.1-0.3-7.7-4.3-5.2-6.7 2.1-1.6 6.2-1.7 8.7 0.4z"/>
  <path class="cls-6" d="m93.4 103.4c6.2-0.8 8.2 3.7 4.7 6.2-4 2.8-10.7 2-9.9-2.2 0.4-2 3.7-3.8 5.2-4z"/>
  <path class="cls-7" d="m59 99.1c0.6-1.5 7.1-2.5 9.5-1.5 2 0.8 2.5 1 1.5 2.5-0.6 0.5-3.4 2.8-4.5 3.5-1.1 0.4-2.1-0.2-4.6-1.9-1.4-0.8-2.3-2.1-1.9-2.6z"/>
  <path class="cls-8" d="m59 99.1c0.9 1 4.6 4.3 6.1 4.5 1 0 4.5-2.5 5-3.2 1-1.3-0.5-1.9-3.2-2.9"/>
  <path class="cls-0" d="m60.1 72.1c2.3-3.6 3.9-5.7 7.3-7.7l1.2 1.7c-3.5 2-7.1 5.9-7.2 8l-1.3-2z"/>
</svg>