<svg xmlns="http://www.w3.org/2000/svg" viewBox="0 0 150 150">
<!-- SVG created with Arrow, by QuiverAI (https://quiver.ai) -->
  <style type="text/css">.cls-0 {fill:#FFFFFF;}
.cls-1 {fill:#020202;fill-opacity:0.149;}
.cls-2 {fill:#191007;}
.cls-3 {fill:#FFF6E8;}
.cls-4 {fill:#F4DCBC;}
.cls-5 {fill:#C9864A;}
.cls-6 {fill:#9F6430;}
.cls-7 {fill:#FFF6E8;stroke:#FFF6E8;stroke-width:0.3144;}
.cls-8 {fill:#F38989;}
.cls-9 {fill:#F3B2B4;}
.cls-10 {fill:#E8B97C;}
.cls-11 {fill:#C88441;}
.cls-12 {fill:#9E5C23;}
.cls-13 {fill:#FFFFFF;}
.cls-14 {fill:#E59A4B;}
.cls-15 {fill:#181006;}
.cls-16 {fill:#F28C8D;}
.cls-17 {fill:#F2B0B2;}
.cls-18 {fill:none;stroke:#181006;stroke-width:0.9431;stroke-miterlimit:10;}</style>
  <path class="cls-1" d="m140.9 67.6c-6.2-1.2-9.9-3.9-14.3-8.6-3.1-3.3-6.2-5.8-9.2-7.4 1.2-4.2 4.2-11.5 10.1-13.6 5.4-1.9 6.9-9.8-0.4-13.8-3.5-1.9-7.5-2.6-12.1-2.7-9.9-0.2-19.5 3.4-26.9 10.8-1.1 1.1-2 2.2-2.8 3.3-2.1-1-4.2-1.5-6.5-1.7 2.6-1.7 4.7-4.4 2.9-8.1-1.3-2.7-3.5-4.7-8.3-5.3-12.2-1.9-24.4 2.8-31.4 11.5-4.6 5.7-7.4 13.1-7.4 19.9-3.4 1.3-7.4 4.1-10.9 7.5-3.4 3.4-7.9 6.8-12.3 8.1-5.1 1.5-10.1 2.3-11 8.6-1 6.9 2.6 17.5 14 21.4 3.1 1.1 6.3 1.4 8.9 1.4-0.8 2.5 0.1 5.6 2.3 7.1-0.1 5.7 3.7 10.2 9.9 12.4 8 6.6 16.9 11.4 33.3 12.5 9.5 0.5 16.7-0.6 24.6-2.7 6.7-1.7 11.2-2.2 15.1-4.4 2.3-1.3 4.4-3.2 6.2-5.3 7.9-0.4 11.8-7 10.7-13.7 1.4-1.2 2.3-2.5 2.6-4.1 12.6-0.7 22-9 22.6-19.5 0.1-4.3-1.3-11.2-9.7-13.6z"/>
  <path class="cls-0" d="m138.6 66.5c-4.2-0.6-8.5-3.4-12-7-3-3.3-6.2-6.5-10.3-8.8 1.2-4.2 4.2-12.1 11.2-14.7 5.4-1.9 6.9-9.8-0.4-13.4-3.5-1.9-8-2.6-12.6-2.8-9.9-0.2-18.8 2.8-26.2 9.6-1.6 1.4-2.8 2.9-3.9 4.9-2.1-1-4.4-1.7-6.9-1.9 2.6-1.7 4.9-4.3 2.9-8.5-1.3-2.7-3.6-4.7-8.4-5.3-9.8-1.5-20.8 1-28.3 8.5-5.6 5.6-9.7 13.8-9.7 22.2l0.1 1.2c-3.4 1.3-6.9 3.8-10.4 7.1-3.4 3.4-7.9 7.2-12.3 8.9-5.1 1.6-10.2 2.3-11.1 8.5-1 6.8 2 16.9 13.4 21.2 3.1 1.3 6.4 1.9 9.3 1.9-0.6 2.5 0.3 5.9 2.4 7.9 0.1 5.7 3.8 10.3 9.9 12.5 8 6.6 17.1 10.8 31.1 11.8 9.5 0.7 16.7 0.2 24.7-1.8 6.7-1.7 11.8-2.4 15.7-4.2 2.7-1.2 5.1-3.2 7.1-5.8 7.9-0.4 11.9-6.6 10.5-14.9 1.4-1.1 2.3-2.5 2.6-5 12.6-0.4 22.6-8.1 22.9-18.6 0.3-8-4.3-12.3-11.3-13.5z"/>
  <path class="cls-2" d="m143.7 71.9c-1.6-1-4.8-2-6.1-2.2-4-0.7-8.4-3-13.3-8-3.1-3.3-7.4-7.4-11.9-8.4 1.2-6.6 5.1-16.7 13.8-20.6 1.4-0.5 2.7-2.2 1.4-4.4-2.4-3.7-10.1-5.7-18-4.8-7.3 0.8-17.7 5.6-24.1 15.3-2.5-2.1-5.8-3.2-9.6-3.2-4.2 0-6.4 1.7-6.8 3.5l-1.5-0.4c0.3-2.5 4.3-6.6 7.7-8.5 2.9-1.8 2.9-3.3 1.8-5.5-1.6-2.6-6.5-3.5-11.4-3.3-6.7 0.3-14.7 2.9-20.1 8.8-7 7.3-8.7 16.5-8 22.8-4.3 1.1-7.6 3.3-12.8 8.1-3.3 3.2-8.2 7.2-13.2 8.6-2 0.5-4 1.2-5.3 1.9-2.4 1.1-4 3.7-2.7 9.1 1.8 6.8 7.6 10.9 13 13 4.1 1.5 9.9 1.4 13.4 0.4l-0.6 0.9c-1.5 1.7-3.9 3.5-3 6.3 0.6 1.7 1.7 2.3 2.5 3-0.4 4.3 1 8.3 8.1 11.2 7.9 6 15.9 9.2 24.1 10.3 10.5 1.8 21.5 1.1 31.4-1.5 3.6-1 9.4-1.8 12.4-3.2 2.8-1.1 5.7-3.5 7.4-6v-0.1-0.1-0.1c6.1 0.8 9.8-4.7 8.3-11.1l-0.5-1.7c1-0.9 4.7-2 3-7 2.1 0.1 3.5 0.1 4.8 0.1 11.7-0.9 19-8.5 19-16.6 0-3.3-1.3-5.5-3.2-6.6z"/>
  <path class="cls-3" d="m38.3 57c-3.6 0.7-7.7 4-11.3 7.6-6.1 6-11.7 7.8-18.9 10-1.8 0.6-1.5 3.4-1 5.3 1 3.7 4.5 8.8 12.3 10.7 2.2 0.6 8.7 0.5 11.3-1l0.2-7.2c-2.5 0.6-7.2 1.3-11.3 0-6.2-1.7-8.2-4.8-9.6-5 2.3 0.6 5.6 3 12.7 3.6 2.9 0.2 7.2-0.4 8.7-2.5 1.2-6.6 2.3-8.9 5.3-13.4-0.4-1.2-1.9-3.9 1.6-8.1z"/>
  <path class="cls-8" d="m10.3 77.6c-1.2 0.9-0.9 5.5 3.4 8 4.9 3.3 12 3.9 17.2 1.4v-4.7c-3.6 0.7-7.6 1.2-12-0.3-6.2-1.8-7.8-4.8-8.6-4.4z"/>
  <path class="cls-4" d="m13.4 85.6c4.9 3.3 12.3 3.9 17.5 1.4l-0.2 2.5c-1.6 1-7.4 1.9-11.3 1.1-7.8-1.9-11.3-7-12.3-10.7v-0.4c1 2 3.2 4.4 6.3 6.1z"/>
  <path class="cls-5" d="m41.6 53.5-0.1-3.9c0.6-13 11.1-24.1 24.8-24.3 2.8 0 7.4 0.3 7.6 1.3-4 1.9-7 5.4-9 9-2.6-2.2-5.5-3.5-10.3-3.7-1 0-2.9 0.4-2.2 0.4 4.7 0.3 8.3 1.4 11.7 4.8l-0.4 1.8-2 0.1c-3.8-1.3-14.1-3.4-16.1 1.4 3.3-2 7.3-2.4 12.8-0.7-4.3 0.7-6.3 3-4.5 5.3-3.5 1-6.3 2.7-8.8 6.1-0.8 1.2-2 2-3.5 2.4z"/>
  <path class="cls-6" d="m60.1 38.4 1.6-3c1.9 1 2 1.5 2.4 1.7l-0.4 1.8-2 0.1-1.6-0.6z"/>
  <path class="cls-6" d="m62.4 33.9c1-2 6.2-6.8 10.7-7.8l0.8 0.5c-3.3 1.5-7 5.3-9 9-0.5-0.4-1.5-1.2-2.5-1.7z"/>
  <path class="cls-3" d="m106.3 66.5c1.7 0.1 2.8-1.8 2.7-2.6-0.4-1.3-5.5-5.8-13.9-6.5l-4.4 0.1c1.9-1.4 5.9-2.1 7-2-1.6-1.6-9.6-2.9-16.3 1-0.3-6.9 0.7-11.1 2.5-14.8-2.8-2.3-5.2-3.6-10.5-3.3-1.7 0-2 1.1-0.3 2.3 0.9 0.8 1.8 2.3 2 2.8-5.5-1.8-9.5-2.5-12.2-2.1-2.2 0-6.3 0.3-7.5 2l1.5 0.9c1.7 0.1 3.5 0.4 4.5 1.2l-6 1.5c-4.7 1.1-10.3 6-9.8 11 0.5 3.9 2.3 5 3.3 0.4 0.4-1.9 2.7-4.5 2.7-4.5-1.5 5.7-0.6 9.1 2.3 12.6 2.8 2.6 4.7 3.9 6.8 4.5 2.9-5.3 8.9-8.7 13.4-11-0.7 3.1-10.7 5.4-12.4 13.4l-3.1-0.8c-3-0.7-5.7-3.5-7.6-6l-1.6-3c-3 0.8-4.7-1.7-5.5-5.2l-0.6-1.3c-2.9 0.8-5.7 2.5-5.4 5.9 0.5 0.4 3 0.4 3 0.4-3.5 2.2-5.2 7.3-6.3 12.7-0.7 5.3-0.5 9.5-0.5 11 0 5.9 1 6-3.2 10.5-2.3 2.8-1.5 3.4 2 2.4-2.2 5.5-0.3 9.5 2.2 11.4 0.3-2.4 1.8-5.4 1.8-5.4-0.5 3.1 2.2 7.1 7.2 10.1 7.8 4.5 14.5 6.8 27.6 6.9 6.7 0 13.9-0.4 21.7-3.4 3.5-1.1 8-4 8.5-6.5 1.6 2 0.2 3.9-0.8 4.6 0 0.8 8.3-1.1 8.6-8.2l-0.6-2c0.8 0.9 1.9 2.1 1.9 3.1 3.6 1.8 6.4-1 6.4-5.1 0-3-3-6.9-2.8-7.8 3.1 1.9 5.3 0.4 5-1.1-4-1.5-9.2-14.9-12.5-26.2 1.5 3.5 3 7.1 4.3 8.6 1.7 2 6.2 2.5 9.2 2.4 6.8 0.1 12-1.8 17.3-3.8-5.3 2.8-10.5 6-16.3 6-3.2 0-5.7 0-8-1 1 2.5 2 5.5 3.3 6.4 1.7 1.7 4.1 2 8.8 2.1 9.2 0.3 17.8-6.7 17.4-13.2-0.1-1.5-1-3.2-2.5-3.6-2.7-0.9-6.5-1.9-9.7-3.3-3.5-1.3-7-4-10.9-8.3-3.6-4-8.4-6.1-9.4-5.7-1 1-1.6 4-0.5 6.4 0.5 1.6-3 3.5-3.8 3.1z"/>
  <path class="cls-4" d="m107.7 70.6c2.4 7.8 7.9 23.9 11.8 25.8 0.6 1.5-2 3.2-4.9 1.2 0 1.4 2.8 4.1 2.5 8.1-0.2 4.9-4.1 6-6.1 4.9 0.1-1.1-1.9-3.1-1.9-3.1 1.9 5.1-4.5 10.2-8 10.2-0.2-0.3 2.6-1.7 1-4.6-0.7 1.6-1.2 2.3-4 4-3.7 2.5-13.7 5.8-25.7 5.8-12.8 0-20-2-28.3-6.5-1.5-1-3-2-4.2-2.9 15 6 44.5 12.6 60-1.9 11.7-11 11.2-26 7.8-41z"/>
  <path class="cls-5" d="m85 52.3c2.4-0.8 5.1-1.3 9.4-0.6 4.7 0.7 7 2.4 6.7 4.8l5.3 2.1c1.2-1.5 1.5-4.3 2.5-8.5-2.3-3.6-9.5-9-15.6-9.2h-2.9c1-1.8 7.5-1 10.7 0 4 1.2 5.8 3.2 8.4 6.6 0.6-2.1 1.5-4.4 3.1-6.5-1-2.4-3-4.3-6.3-5.6l-7.9-2.7c2.2-0.3 6.3 0 10.2 2 2 0.9 3.5 1.9 4.8 4.7 2.3-4.3 6.7-8.4 11-9.9-0.8-2.1-7.5-3.6-14.3-2.6-13.2 1.7-24.4 12-25.1 25.4z"/>
  <path class="cls-6" d="m101.4 56.6c0.7-3.5 2.6-9.7 3.5-11.6 1.5 0.6 3.7 2.7 4.1 3.5l-0.1 1.1-1.8 9.1-5.7-2.1z"/>
  <path class="cls-6" d="m105.5 43.4 4.4-5.8 0.7-0.2c1 0.7 1.8 2 2 3.6l-2.5 6.6-1.7-1.9-2.9-2.3z"/>
  <path class="cls-6" d="m110.6 36.7c2-2.6 8.4-7.6 12.5-8.4l1.3 1.1c-4.3 1-9.5 5.7-11 10-1-1-1.3-1.9-2.8-2.7z"/>
  <path class="cls-4" d="m138.6 83.4 2.3 0.5c-2.8 3.7-8.3 7.2-13.5 7.2-5.8 0-8.8-0.5-9.5-1.1l-3.3-5.3 3.3 1.2c5.2 1.7 16.2 2.8 20.7-2.5z"/>
  <path class="cls-8" d="m113.6 82.6 1 2.1c3 2.2 7.5 4 13.8 3.7 5.2 0 11.2-3.8 11.7-8.4 0.3-1.6-1.2-2.9-2.2-2.3-3 0.9-7.8 3.9-12.8 5.4-3.5 0.8-8.7 0.8-11.5-0.5z"/>
  <path class="cls-7" d="m113.6 82.6"/>
  <path class="cls-9" d="m40.4 101.4c-3.8 2.1-1 6.2 4 6.1 6-0.1 6.6-5.1 1.2-6.8-1.9-0.5-3.7-0.3-5.2 0.7z"/>
  <path class="cls-9" d="m90.4 102.6c-4.8 2.4-2.5 7 3.2 6.8 6.8-0.5 7.8-6.3 2-7.7-1.6-0.3-3.5 0-5.2 0.9z"/>
  <path class="cls-10" d="m83.6 98.6c3 2.5 7.3 1.8 9.4-1.6 2.1-3.3 1.9-7.3-0.4-8.6-2.2-1.4-5.9 0-8 3-1.6 2-2.5 6-1 7.2z"/>
  <path class="cls-11" d="m87.6 96.6c-3 0-3.5-2.2-3.5-3.2-1-1.4-3.2 0.5-3.5 1-0.2 1 1.8 3.7 2.5 4.2 0.6-0.9 2-2 4.5-2z"/>
  <path class="cls-12" d="m90.4 93.6c0.3 0.8-0.8 2.8-1.3 3 1.3 0.3 2.3 1.5 2.5 1.8 1-0.8 2.4-3.8 2.4-6-0.1-2-3.4-2.3-2.4 0.6l-1.2 0.6z"/>
  <path class="cls-13" d="m82.6 85.6-0.2 1.8c0.7 1.7 3.2 2.6 5 1 3-2.3-0.7-6.3-3.5-4.3l-1.3 1.5z"/>
  <path class="cls-14" d="m83.1 98.6c1-1.2 3-3.2 6.5-2v3c-2.2 1-5.2 0.8-6.5-1z"/>
  <path class="cls-11" d="m45.1 95.4c1.8 4.2 6.3 4.6 8.8 2.5 2.5-2.2 2.8-7.3 1.2-9l-6 0.1-4 6.4z"/>
  <path class="cls-12" d="m48.1 95.1-1-3.7c-0.7-1-2.7-0.4-2.5 0.7l0.5 2.3 3 0.7z"/>
  <path class="cls-12" d="m52.4 94.9 0.5 0.7 2 0.5 0.5-2.4c0-2.3-2-2.7-3 1.2z"/>
  <path class="cls-14" d="m45.9 96.6c0.5-0.5 1.7-2 1.7-1.5 1.5 1 4 1 5.3 0l-1.3 3.9h-2.2l-2.5-0.9-1-1.5z"/>
  <path class="cls-13" d="m49.1 85.9v1.1c0.8 2.1 3.5 3 4.8 0.4 0.5-3.8-3.3-5-4.8-1.5z"/>
  <path class="cls-15" d="m45.7 82.1c-1.6 2-2.8 4.9-2.8 7.9 0 4.1 2 9.6 7 9.6 5-0.2 6.7-3.2 6.8-9-0.6-6-4.1-11-9.6-11.7-2.7 0-9.7 1.7-9.7 10.1 0 3.4 2.2 7.1 4.7 8.1-1-1.5-5.5-11 3.6-15z"/>
  <path class="cls-15" d="m93.9 79.6c-7.8-2.2-15.5 2.4-15.5 11 0 4.8 2.7 9.3 7.3 10.4 6.4 0.9 10.2-4 10-10.4-0.3-4.5-1.8-7.2-2-7.2 3.2 1.2 5.7 6.1 4.9 10.3l-1.7 5c3.2-1.7 5.2-5.1 5.2-8.1 0-4.2-2.5-9.6-8.2-11z"/>
  <path class="cls-13" d="m82.5 87.5c1.2 2.1 3.6 2.1 5.1 0.6 2.8-2.5-1.5-6.5-4.2-3.7-0.9 1-0.8 2-0.9 3.1z"/>
  <path class="cls-13" d="m49.1 86.4c0.5 3.1 4 3.3 4.8 0.7 0.2-3.7-3.8-4.7-4.8-0.7z"/>
  <path class="cls-15" d="m41.9 76c1.2-1 3.7-2.1 5.7-2.3 2 0 4.8 1 6 2.9-0.7-5.2-5-6-7.2-5-2 0.8-4 2.8-4.5 4.4z"/>
  <path class="cls-15" d="m81.7 75.7c1.7-0.8 4.9-1.6 6.9-1.6s4.4 0.8 5.8 2c-0.7-4.2-5-5.2-7.3-4.6-2.1 0.4-4.5 1.9-5.4 4.2z"/>
  <path class="cls-16" d="m62.6 112c2.5 4.6 9 5.6 11.3-2.6l-0.2-0.3-3.6-0.5c-3.2 0-9 1.4-7.5 3.4z"/>
  <path class="cls-15" d="m57.4 104.6c-0.3 0.8 1.2 1.8 1.7 2.3 1 2 1.8 6.7 6 9.5 4 2.1 9.3-0.5 10-6.7l1.2-6.1c-2.2 1.4-5.3 3.3-9.9 0.8-1.8-1.3-4.8 3.7-8.8 0.2h-0.2z"/>
  <path class="cls-16" d="m60.6 97.9c0 0.5 3.3 3.5 4.8 3.7 1 0 4.5-2.7 4.7-3.2-0.2-2.5-9.4-1.8-9.5-0.5z"/>
  <path class="cls-18" d="m60.1 97.7c-0.5 1.2 1.5 2.2 3 3.3 2.5 1.6 2.8 1.3 4.5 0.1 1.8-1.1 3.4-2 2.8-3.5-3-2.5-9.8-1.2-10.3 0.1z"/>
  <path class="cls-13" d="m89 96.6c-1.3 0.5-0.3 2.9 1.4 2 1.2-1 0.2-2.7-1.4-2z"/>
  <path class="cls-13" d="m51.4 95.4c-1 1.2 0.7 3 1.7 1.5 0.8-1.2-0.7-2.3-1.7-1.5z"/>
  <path class="cls-16" d="m62.6 112c2.5 5 9.1 6.1 11-2.6l-0.2-0.4c-2.3 0-3.8-0.6-6.8 0.4-1.7 0.6-5 1.2-4 2.6z"/>
  <path class="cls-11" d="m84.1 98.6c0.3-0.7 1.6-2 2.3-2 1 0.4 2.2 0.4 3 0 0.5 0.4 1.2 1.8 1.2 2-1.2 1-4.2 2.4-6.5 0z"/>
  <path class="cls-15" d="m90.6 40.9c1-1.8 7.3-1.3 11.3 0.2 4.7 1.5 6.2 4.3 8.2 6.5-0.5 1.5-0.5 1.8-1.1 1-2.6-3.2-8.4-7-14-7.7h-4.4z"/>
</svg>