<svg xmlns="http://www.w3.org/2000/svg" viewBox="0 0 150 150">
<!-- SVG created with Arrow, by QuiverAI (https://quiver.ai) -->
  <style type="text/css">.cls-0 {fill:#FFF6E6;}
.cls-1 {fill:#0B2340;}</style>
  <path class="cls-0" d="m105.2 56.9c1.8-9.9 7.8-24.9 21.7-36.5l1.7-1.4-8.6-3.4c-15.6 0.6-29.9 11.9-40 26.3l-5.4 8.1c-5.9-10.9-14.2-21.1-24.2-27.3l-14.3-6.7h-15.2l1.7 1.5c13.9 11.4 19.8 24.6 22.2 34.7l0.3 4.8c-11.8 0.4-24.3 4.5-37.3 17.6l-0.5 3.3c4.8 3.2 14.1 8.6 26 7.8l7.2-1.3 1.3 20.1c2 11 11.2 22.4 24.8 27.8l1.5 0.4c24.6-0.8 39.9-17.5 41-37.2l0.1-12.1 7.5 2.3c11.8 0.9 20.8-3.9 26-7.4l-0.5-3.3c-9-8.7-19.7-16.9-37-18.1z"/>
  <path class="cls-1" d="m105.6 52.9"/>
  <path class="cls-1" d="m105.6 52.9"/>
  <path class="cls-1" d="m105.6 52.9"/>
  <path class="cls-1" d="m105.6 52.9"/>
  <path class="cls-1" d="m105.5 52.9"/>
  <path class="cls-1" d="m105.5 52.9"/>
  <path class="cls-1" d="m105.5 52.9"/>
  <path class="cls-1" d="m105.5 52.9"/>
  <path class="cls-1" d="m105.5 52.9"/>
  <path class="cls-1" d="m105.6 52.9"/>
  <path class="cls-1" d="m105.5 52.9"/>
  <path class="cls-1" d="m105.6 52.9c1.8-8.5 7.9-22.5 23-34.4l3.8-3.2c-3.3-1.8-7.5-2.6-13.6-1.8-12.2 1.2-26.8 9.4-37.8 25.6l-2.2 2.8c3 4.9 7.6 14 10.4 23.6 4.2-1.9 8.8-3.5 15.7-3.5 11.5-0.2 22.5 5.7 32.3 15.5-3.8 2.2-8.7 4.1-14.9 4.1-6.7 0-11.8-2.2-18.4-5.7v16.5c0 14.4-10.9 33.3-35.8 35.5-9.9-2.9-22-13.1-22.1-27.9v-24.1c-5.7 3.3-11 5.7-17.8 5.7-5.3 0-10-1.3-15.2-4.2 5.4-5.9 16.6-15.2 30.8-15.2 10.8-0.2 20.4 8.2 20.3 18.7v5l17.7-15.2c-3-12-11.2-36.6-30.3-49.2-4.1-2.7-8.4-5.1-13.5-6.4-5.4-1.6-14-2.5-19.9 0.2l3.7 2.8c9.6 7.6 18.9 19.7 22.5 34.7-14.1 0-29.2 6.6-42.5 25.1 6.1 6.1 14.4 11.6 26.4 11.6 3.2 0 5.6-0.2 9.1-0.9v9.9c0.3 16 10.8 32.4 30.5 38.2 4.1-0.2 9-1 12.9-2.1 17.2-5 31.2-19.3 32.2-40.5v-5.6c3.3 0.8 5.9 1.1 9.2 1 8.5 0 17.8-2.9 26.3-11.5-8.1-10.8-21.3-24.3-42.8-25.2l-0.1 0.1z"/>
</svg>